<svg id="download1" xmlns="http://www.w3.org/2000/svg" width="34.285" height="33.515" viewBox="0 0 34.285 33.515">
  <path id="Path_1" data-name="Path 1" d="M395.108,129.674s-12.426-1.075-12.665,2.031,0,9.32,0,9.32h-4.182s-.837,0,0,1.195,9.917,12.9,9.917,12.9.956.836,1.673,0,10.275-13.262,10.275-13.262.239-.836-.478-.836h-4.421Z" transform="translate(-371.928 -129.494)" fill="#231717"/>
  <path id="Path_2" data-name="Path 2" d="M358.109,317h2.509s1.553.836,1.553,1.673v8.6s.836.836-2.031.836h-31.3A1.288,1.288,0,0,1,328,326.8v-8.125s.6-1.434,1.434-1.434h2.629l-.12,6.93h26.286Z" transform="translate(-328 -294.597)" fill="#231717"/>
  <path id="Path_3" data-name="Path 3" d="M25.434,44.51h0Z" transform="translate(-21.132 -39.192)" fill="#231717"/>
</svg>
