<svg id="facebook" xmlns="http://www.w3.org/2000/svg" width="42.348" height="42.347" viewBox="0 0 42.348 42.347">
  <path id="Path_5" data-name="Path 5" d="M291.386,508.668q-.265.043-.531.08Q291.122,508.711,291.386,508.668Zm0,0" transform="translate(-266.798 -466.596)" fill="#fff"/>
  <path id="Path_6" data-name="Path 6" d="M299.592,507.793l-.253.044Zm0,0" transform="translate(-274.581 -465.794)" fill="#fff"/>
  <path id="Path_7" data-name="Path 7" d="M278.232,510.34q-.31.035-.623.061Q277.922,510.375,278.232,510.34Zm0,0" transform="translate(-254.649 -468.13)" fill="#fff"/>
  <path id="Path_8" data-name="Path 8" d="M286.744,509.738l-.3.037Zm0,0" transform="translate(-262.754 -467.578)" fill="#fff"/>
  <path id="Path_9" data-name="Path 9" d="M306.887,506.41l-.224.047Zm0,0" transform="translate(-281.3 -464.525)" fill="#fff"/>
  <path id="Path_10" data-name="Path 10" d="M324.665,502.113l-.18.05Zm0,0" transform="translate(-297.646 -460.583)" fill="#fff"/>
  <path id="Path_11" data-name="Path 11" d="M319.255,503.543l-.2.051Zm0,0" transform="translate(-292.67 -461.895)" fill="#fff"/>
  <path id="Path_12" data-name="Path 12" d="M312.275,505.254l-.209.047Zm0,0" transform="translate(-286.256 -463.465)" fill="#fff"/>
  <path id="Path_13" data-name="Path 13" d="M273.815,511.09l-.335.025Zm0,0" transform="translate(-250.861 -468.818)" fill="#fff"/>
  <path id="Path_14" data-name="Path 14" d="M42.348,21.174A21.174,21.174,0,1,0,21.174,42.347c.124,0,.248,0,.372,0V25.86H17v-5.3h4.549v-3.9c0-4.524,2.762-6.987,6.8-6.987a37.448,37.448,0,0,1,4.078.208v4.729H29.639c-2.2,0-2.621,1.044-2.621,2.575v3.377h5.25l-.684,5.3H27.018v15.67A21.185,21.185,0,0,0,42.348,21.174Zm0,0" fill="#fff"/>
  <path id="Path_15" data-name="Path 15" d="M265.554,511.43q-.331.021-.664.033Q265.224,511.452,265.554,511.43Zm0,0" transform="translate(-242.981 -469.13)" fill="#fff"/>
  <path id="Path_16" data-name="Path 16" d="M260.856,511.836l-.352.009Zm0,0" transform="translate(-238.958 -469.502)" fill="#fff"/>
</svg>
