<svg xmlns="http://www.w3.org/2000/svg" width="42.351" height="42.351" viewBox="0 0 42.351 42.351">
  <g id="Untitled-3" transform="translate(0)">
    <path id="Path_35" data-name="Path 35" d="M776.205,389.53c-11.693,0-21.175,9.72-21.175,21.711a21.676,21.676,0,0,0,14.481,20.6c1.058.2,1.447-.471,1.447-1.044,0-.517-.02-2.228-.028-4.043-5.891,1.313-7.133-2.562-7.133-2.562a5.713,5.713,0,0,0-2.351-3.176c-1.921-1.347.145-1.319.145-1.319a4.466,4.466,0,0,1,3.247,2.238c1.889,3.319,4.953,2.36,6.162,1.8a4.665,4.665,0,0,1,1.344-2.9c-4.7-.549-9.648-2.411-9.648-10.731a8.524,8.524,0,0,1,2.182-5.828,7.977,7.977,0,0,1,.206-5.746s1.779-.583,5.824,2.226a19.617,19.617,0,0,1,10.605,0c4.042-2.809,5.817-2.226,5.817-2.226a7.975,7.975,0,0,1,.208,5.746,8.5,8.5,0,0,1,2.179,5.828c0,8.339-4.953,10.175-9.669,10.713a5.262,5.262,0,0,1,1.436,4.021c0,2.9-.025,5.243-.025,5.958,0,.578.381,1.255,1.454,1.042a21.673,21.673,0,0,0,14.469-20.6C797.381,399.251,787.9,389.53,776.205,389.53Z" transform="translate(-755.03 -389.53)" fill="#fff" fill-rule="evenodd"/>
    <path id="Path_36" data-name="Path 36" d="M815.844,632.5a.3.3,0,0,1-.41.073c-.174-.078-.272-.241-.214-.36s.239-.157.412-.074.273.241.213.361Zm-.3-.219" transform="translate(-806.775 -601.319)" fill="#fff"/>
    <path id="Path_37" data-name="Path 37" d="M822.834,638.639c-.115.1-.338.056-.489-.111s-.186-.391-.07-.5.335-.056.492.111.186.389.067.5Zm-.228-.245" transform="translate(-813.9 -606.473)" fill="#fff"/>
    <path id="Path_38" data-name="Path 38" d="M829.48,647.529c-.147.1-.387.007-.535-.206s-.147-.469,0-.57.385-.01.535.2.147.472,0,.576Zm0,0" transform="translate(-819.712 -614.112)" fill="#fff"/>
    <path id="Path_39" data-name="Path 39" d="M837.639,657.215c-.132.144-.41.105-.615-.092a.459.459,0,0,1-.136-.612c.133-.144.415-.1.62.093s.269.468.13.612Zm0,0" transform="translate(-826.712 -623.397)" fill="#fff"/>
    <path id="Path_40" data-name="Path 40" d="M849.271,664.38c-.057.188-.328.273-.6.193s-.448-.3-.394-.492.326-.277.6-.192.448.3.392.49Zm0,0" transform="translate(-836.753 -629.789)" fill="#fff"/>
    <path id="Path_41" data-name="Path 41" d="M863.089,666.46c.007.2-.224.361-.508.364s-.518-.153-.521-.347.225-.361.511-.367.518.154.518.35Zm0,0" transform="translate(-848.841 -631.726)" fill="#fff"/>
    <path id="Path_42" data-name="Path 42" d="M876.163,664.714c.034.192-.164.391-.447.443s-.535-.069-.57-.259.167-.4.444-.447.536.067.573.263Zm0,0" transform="translate(-860.306 -630.29)" fill="#fff"/>
  </g>
</svg>
