<svg xmlns="http://www.w3.org/2000/svg" width="42.351" height="42.351" viewBox="0 0 42.351 42.351">
  <g id="instagram" transform="translate(0)">
    <path id="Path_17" data-name="Path 17" d="M216.041,211.52a4.52,4.52,0,1,1-4.52-4.52A4.52,4.52,0,0,1,216.041,211.52Zm0,0" transform="translate(-190.345 -190.345)" fill="#fff"/>
    <path id="Path_18" data-name="Path 18" d="M157.174,138.608a4.491,4.491,0,0,0-2.574-2.574,7.5,7.5,0,0,0-2.518-.467c-1.43-.065-1.859-.079-5.48-.079s-4.05.014-5.48.079a7.508,7.508,0,0,0-2.518.467,4.493,4.493,0,0,0-2.574,2.574,7.505,7.505,0,0,0-.467,2.518c-.065,1.43-.079,1.859-.079,5.48s.014,4.05.079,5.48a7.5,7.5,0,0,0,.467,2.518,4.491,4.491,0,0,0,2.574,2.574,7.494,7.494,0,0,0,2.518.467c1.43.065,1.858.079,5.48.079s4.051-.014,5.48-.079a7.494,7.494,0,0,0,2.518-.467,4.491,4.491,0,0,0,2.574-2.574,7.51,7.51,0,0,0,.467-2.518c.065-1.43.079-1.859.079-5.48s-.014-4.05-.079-5.48A7.494,7.494,0,0,0,157.174,138.608ZM146.6,153.57a6.964,6.964,0,1,1,6.964-6.964A6.964,6.964,0,0,1,146.6,153.57Zm7.239-12.575a1.627,1.627,0,1,1,1.627-1.627A1.627,1.627,0,0,1,153.842,140.995Zm0,0" transform="translate(-125.427 -125.431)" fill="#fff"/>
    <path id="Path_19" data-name="Path 19" d="M21.176,0A21.176,21.176,0,1,0,42.351,21.176,21.178,21.178,0,0,0,21.176,0ZM33.262,26.189A8.921,8.921,0,0,1,32.7,29.14,6.217,6.217,0,0,1,29.14,32.7a8.927,8.927,0,0,1-2.951.565c-1.3.059-1.711.073-5.013.073s-3.716-.014-5.013-.073a8.927,8.927,0,0,1-2.951-.565A6.217,6.217,0,0,1,9.655,29.14a8.919,8.919,0,0,1-.565-2.951c-.06-1.3-.074-1.711-.074-5.013s.014-3.716.073-5.013a8.922,8.922,0,0,1,.565-2.952,6.222,6.222,0,0,1,3.557-3.556,8.929,8.929,0,0,1,2.952-.565c1.3-.059,1.711-.073,5.013-.073s3.716.014,5.013.074a8.931,8.931,0,0,1,2.952.564A6.219,6.219,0,0,1,32.7,13.211a8.92,8.92,0,0,1,.565,2.952c.059,1.3.073,1.711.073,5.013S33.321,24.892,33.262,26.189Zm0,0" fill="#fff"/>
  </g>
</svg>
