<svg xmlns="http://www.w3.org/2000/svg" width="53.949" height="61.744" viewBox="0 0 53.949 61.744">
  <g id="logo" transform="translate(-162.217 -446.382)">
    <path id="Path_33" data-name="Path 33" d="M192.159,497.714a42.766,42.766,0,0,1,1-8.126q.994-4.962,2.639-10.6-4.709.388-9.468,1.016a63.7,63.7,0,0,1-8.249.629,141.559,141.559,0,0,0-5.11,14.539,121.412,121.412,0,0,0-2.965,12.955,9.825,9.825,0,0,1-4.5-2.359,19.161,19.161,0,0,1-3.285-4.24q.573-1.2,1.32-3.077c.5-1.247,1.1-2.763,1.791-4.537s1.471-3.852,2.359-6.228,1.892-5.138,3.032-8.289a5.673,5.673,0,0,1-3.139-2.926,4.633,4.633,0,0,1,1.606-.64q1.247-.337,3.105-.713l.927-2.4q1.508-4.051,2.471-6.829t1.64-5.441q.682-2.662,1.286-5.885t1.466-8.182a11.671,11.671,0,0,1,5.47,2.78,21.163,21.163,0,0,1,4.251,5.251,22.453,22.453,0,0,0-1.572,2.7c-.623,1.2-1.3,2.639-2.039,4.313s-1.539,3.549-2.4,5.627-1.78,4.268-2.785,6.565q4.439-.64,8.968-1.2a65.949,65.949,0,0,1,8.042-.562q1.289-3.917,2.679-7.648t2.752-6.823q1.356-3.091,2.606-5.43a18.866,18.866,0,0,1,2.252-3.47,7.542,7.542,0,0,1,1.893.567,23.948,23.948,0,0,1,2.4,1.162,16.965,16.965,0,0,1,2.213,1.46,5.1,5.1,0,0,1,1.359,1.466,18.765,18.765,0,0,0-2.572,3.3,42.748,42.748,0,0,0-2.538,4.65q-1.255,2.628-2.465,5.7t-2.286,6.379a4.462,4.462,0,0,1,1.426,3.375,6.118,6.118,0,0,1-.567,2.628,4.46,4.46,0,0,0-1.292-.185,13.023,13.023,0,0,1-1.359-.078q-1.2,4.035-2.212,8.008t-1.679,7.559q-.682,3.589-1.073,6.581a40.369,40.369,0,0,0-.393,5.015c0,.5.011.9.039,1.2a4.662,4.662,0,0,0,.107.747,4.082,4.082,0,0,1-2.286-.494,3.611,3.611,0,0,1-1.073-1.05,12.819,12.819,0,0,1-.646-1.129,1.912,1.912,0,0,0-.927-.865,2.216,2.216,0,0,1-.932-1.05,10.108,10.108,0,0,1-.713-1.881,16.473,16.473,0,0,1-.427-2.106A13.3,13.3,0,0,1,192.159,497.714Z" transform="translate(0 0)" fill="#605555"/>
    <path id="Path_34" data-name="Path 34" d="M168.43,494.394a16.991,16.991,0,0,1-4.537-1.55,2.259,2.259,0,0,1-1.264-1.949,7.633,7.633,0,0,1,.612-2.5,32.414,32.414,0,0,1,1.808-3.807q1.2-2.19,2.87-4.857t3.785-5.722h-5.458a3.76,3.76,0,0,1,2.319-1.449,31.545,31.545,0,0,1,5.049-1.056,79.1,79.1,0,0,1,5.7-6.9q3.032-3.285,6.11-6.037a57.733,57.733,0,0,1,6.138-4.841,36.666,36.666,0,0,1,5.868-3.313c.045-.258.079-.483.107-.668a3.809,3.809,0,0,0,.034-.388,11.589,11.589,0,0,1,2.561.388,30.052,30.052,0,0,1,3.134.943,27.961,27.961,0,0,1,2.729,1.134c.8.387,1.241.713,1.331.972a39.655,39.655,0,0,0-4.431,9.625,94.41,94.41,0,0,0-3.622,15.336c-.225,1.482-.416,3.161-.579,5.048s-.236,3.993-.236,6.323v2.493c0,.854.045,1.741.135,2.668a.793.793,0,0,1-.275.05h-.545a11.819,11.819,0,0,1-2.218-.241c-.842-.163-1.662-.365-2.454-.6a12.858,12.858,0,0,1-2.05-.792,2.8,2.8,0,0,1-1.056-.764c-.045-.477-.067-.938-.067-1.393V489.1q0-3.386.3-6.879a66.173,66.173,0,0,1,1.061-7.211,4.837,4.837,0,0,0-2.527-.584H176.752q-1.634,2.468-3.072,4.9a39.5,39.5,0,0,0-2.454,4.9,37.258,37.258,0,0,0-1.876,5.251A28.328,28.328,0,0,0,168.43,494.394Zm24.81-32.256q.253-.75.607-2.072c.236-.882.46-1.808.674-2.774a13.748,13.748,0,0,0-3.555,1.775,32.319,32.319,0,0,0-4.032,3.2q-2.081,1.9-4.223,4.3c-1.426,1.595-2.808,3.291-4.128,5.082q5.374-.455,12.225-.455c.337-1.505.713-3.01,1.117-4.5S192.768,463.688,193.24,462.138Z" transform="translate(1.902 13.732)" fill="#1f062d"/>
  </g>
</svg>
