<svg xmlns="http://www.w3.org/2000/svg" width="106.753" height="57.058" viewBox="0 0 106.753 57.058">
  <g id="toggle_modes" data-name="toggle modes" transform="translate(-874 -989)">
    <g id="Path_44" data-name="Path 44" transform="translate(874 989)" fill="#fff">
      <path d="M 78.22418212890625 56.5576286315918 L 28.52882385253906 56.5576286315918 C 24.74473762512207 56.5576286315918 21.07409477233887 55.81661605834961 17.61889457702637 54.35518646240234 C 14.28129577636719 52.94351577758789 11.28372383117676 50.92245864868164 8.709452629089355 48.34818649291992 C 6.135166645050049 45.77390289306641 4.114109516143799 42.77632904052734 2.702438116073608 39.43874359130859 C 1.241009593009949 35.9835319519043 0.4999953508377075 32.31290054321289 0.4999953508377075 28.52881622314453 C 0.4999953508377075 24.74472999572754 1.241009593009949 21.0741024017334 2.702438116073608 17.61888694763184 C 4.114109516143799 14.28130149841309 6.135166645050049 11.28373050689697 8.709452629089355 8.709444999694824 C 11.28372383117676 6.135173320770264 14.28129577636719 4.114116191864014 17.61889457702637 2.702444791793823 C 21.07409477233887 1.241016268730164 24.74473762512207 0.5000019669532776 28.52882385253906 0.5000019669532776 L 78.22418212890625 0.5000019669532776 C 82.00827026367188 0.5000019669532776 85.67889404296875 1.241016268730164 89.13410949707031 2.702444791793823 C 92.47169494628906 4.114116191864014 95.46926879882813 6.135173320770264 98.04355621337891 8.709444999694824 C 100.6178207397461 11.28373050689697 102.6388778686523 14.28130149841309 104.0505523681641 17.61888694763184 C 105.5119781494141 21.0741024017334 106.2529983520508 24.74472999572754 106.2529983520508 28.52881622314453 C 106.2529983520508 32.31290054321289 105.5119781494141 35.9835319519043 104.0505523681641 39.43874359130859 C 102.6388778686523 42.77632904052734 100.6178207397461 45.77390289306641 98.04355621337891 48.34818649291992 C 95.46926879882813 50.92245864868164 92.47169494628906 52.94351577758789 89.13410949707031 54.35518646240234 C 85.67889404296875 55.81661605834961 82.00827026367188 56.5576286315918 78.22418212890625 56.5576286315918 Z" stroke="none"/>
      <path d="M 28.52880859375 1.000003814697266 C 24.81201171875 1.000003814697266 21.2069091796875 1.727714538574219 17.81366729736328 3.162944793701172 C 14.53566741943359 4.549415588378906 11.59152221679688 6.534488677978516 9.062995910644531 9.063003540039063 C 6.53448486328125 11.59152984619141 4.549407958984375 14.53567504882813 3.162940979003906 17.81367492675781 C 1.727706909179688 21.20691680908203 0.9999923706054688 24.81201553344727 0.9999923706054688 28.52881622314453 C 0.9999923706054688 32.2456169128418 1.727706909179688 35.85071563720703 3.162940979003906 39.24395751953125 C 4.549407958984375 42.52195739746094 6.53448486328125 45.46610260009766 9.062995910644531 47.99462890625 C 11.59152221679688 50.52314376831055 14.53566741943359 52.50821685791016 17.81366729736328 53.89468765258789 C 21.2069091796875 55.32991790771484 24.81201171875 56.05763244628906 28.52880859375 56.05763244628906 L 78.22416687011719 56.05763244628906 C 81.94097900390625 56.05763244628906 85.54608154296875 55.32991790771484 88.93932342529297 53.89468765258789 C 92.21732330322266 52.50821685791016 95.16146850585938 50.52314376831055 97.68999481201172 47.99462890625 C 100.218505859375 45.46610260009766 102.2035827636719 42.52195739746094 103.5900497436523 39.24395751953125 C 105.0252838134766 35.85071563720703 105.7529983520508 32.2456169128418 105.7529983520508 28.52881622314453 C 105.7529983520508 24.81201553344727 105.0252838134766 21.20691680908203 103.5900497436523 17.81367492675781 C 102.2035827636719 14.53567504882813 100.218505859375 11.59152984619141 97.68999481201172 9.063003540039063 C 95.16146850585938 6.534488677978516 92.21732330322266 4.549415588378906 88.93932342529297 3.162944793701172 C 85.54608154296875 1.727714538574219 81.94097900390625 1.000003814697266 78.22416687011719 1.000003814697266 L 28.52880859375 1.000003814697266 M 28.52880859375 3.814697265625e-06 L 78.22416687011719 3.814697265625e-06 C 93.98020935058594 3.814697265625e-06 106.7529983520508 12.77278900146484 106.7529983520508 28.52881622314453 C 106.7529983520508 44.28484344482422 93.98020935058594 57.0576286315918 78.22416687011719 57.0576286315918 L 28.52880859375 57.0576286315918 C 12.77278137207031 57.0576286315918 -7.62939453125e-06 44.28484344482422 -7.62939453125e-06 28.52881622314453 C -7.62939453125e-06 12.77278900146484 12.77278137207031 3.814697265625e-06 28.52880859375 3.814697265625e-06 Z" stroke="none" fill="#707070"/>
    </g>
    <g id="Path_43" data-name="Path 43" transform="translate(874 991)" fill="#fff">
      <path d="M 26.40679550170898 52.5576171875 C 22.90946578979492 52.5576171875 19.51699638366699 51.86959838867188 16.32361602783203 50.51268005371094 C 13.2387752532959 49.20186996459961 10.46816539764404 47.32518768310547 8.0887451171875 44.93478012084961 C 5.709165573120117 42.54419708251953 3.840955495834351 39.760498046875 2.53600549697876 36.66100692749023 C 1.185015559196472 33.4521484375 0.5000054836273193 30.04317855834961 0.5000054836273193 26.52880859375 C 0.5000054836273193 23.01443862915039 1.185015559196472 19.60546875 2.53600549697876 16.39660835266113 C 3.840955495834351 13.29711818695068 5.709165573120117 10.51341819763184 8.0887451171875 8.122838973999023 C 10.46816539764404 5.732428550720215 13.2387752532959 3.855748653411865 16.32361602783203 2.544938564300537 C 19.51699638366699 1.188018560409546 22.90946578979492 0.4999985992908478 26.40679550170898 0.4999985992908478 C 29.90412521362305 0.4999985992908478 33.29659652709961 1.188018560409546 36.48997497558594 2.544938564300537 C 39.57481384277344 3.855748653411865 42.34543609619141 5.732428550720215 44.72485733032227 8.122848510742188 C 47.10443496704102 10.51341819763184 48.9726448059082 13.29711818695068 50.27759552001953 16.39660835266113 C 51.62858581542969 19.60546875 52.31359481811523 23.01443862915039 52.31359481811523 26.52880859375 C 52.31359481811523 30.04317855834961 51.62858581542969 33.4521484375 50.27759552001953 36.66100692749023 C 48.9726448059082 39.760498046875 47.10443496704102 42.54419708251953 44.72485733032227 44.93476867675781 C 42.34543609619141 47.32518768310547 39.57481384277344 49.20186996459961 36.48997497558594 50.51268005371094 C 33.29659652709961 51.86959838867188 29.90412521362305 52.5576171875 26.40679550170898 52.5576171875 Z" stroke="none"/>
      <path d="M 26.40679550170898 1 C 22.97703552246094 1 19.65034484863281 1.674617767333984 16.5191535949707 3.005119323730469 C 13.49397659301758 4.290576934814453 10.77679443359375 6.131107330322266 8.443103790283203 8.475578308105469 C 6.109096527099609 10.82037734985352 4.276695251464844 13.55066680908203 2.996814727783203 16.59062957763672 C 1.671825408935547 19.73773956298828 0.9999961853027344 23.08142852783203 0.9999961853027344 26.52880859375 C 0.9999961853027344 29.97618865966797 1.671825408935547 33.31987762451172 2.996814727783203 36.46698760986328 C 4.276695251464844 39.50695037841797 6.109096527099609 42.23723983764648 8.443103790283203 44.58203887939453 C 10.77679443359375 46.92650985717773 13.49397659301758 48.76704025268555 16.5191535949707 50.05249786376953 C 19.65034484863281 51.38299942016602 22.97703552246094 52.0576171875 26.40679550170898 52.0576171875 C 29.83655548095703 52.0576171875 33.16324615478516 51.38299942016602 36.29443359375 50.05249786376953 C 39.31961441040039 48.76704025268555 42.03678512573242 46.92650985717773 44.3704833984375 44.58203887939453 C 46.70448684692383 42.23723983764648 48.53688430786133 39.50695037841797 49.81676483154297 36.46698760986328 C 51.14175415039063 33.31987762451172 51.8135871887207 29.97618865966797 51.8135871887207 26.52880859375 C 51.8135871887207 23.08142852783203 51.14175415039063 19.73773956298828 49.81676483154297 16.59062957763672 C 48.53688430786133 13.55066680908203 46.70448684692383 10.82037734985352 44.3704833984375 8.475578308105469 C 42.03678512573242 6.131107330322266 39.31961441040039 4.290576934814453 36.29443359375 3.005119323730469 C 33.16324615478516 1.674617767333984 29.83655548095703 1 26.40679550170898 1 M 26.40679550170898 0 C 40.99086761474609 0 52.8135871887207 11.87734985351563 52.8135871887207 26.52880859375 C 52.8135871887207 41.18026733398438 40.99086761474609 53.0576171875 26.40679550170898 53.0576171875 C 11.82272720336914 53.0576171875 -3.814697265625e-06 41.18026733398438 -3.814697265625e-06 26.52880859375 C -3.814697265625e-06 11.87734985351563 11.82272720336914 0 26.40679550170898 0 Z" stroke="none" fill="#e2d3d3"/>
    </g>
  </g>
</svg>
