<svg xmlns="http://www.w3.org/2000/svg" width="97.231" height="48" viewBox="0 0 97.231 48">
  <g id="toggle_modes" transform="translate(-874 -989)">
    <g id="Path_44" data-name="Path 44" transform="translate(874 989)" fill="#fff">
      <path d="M 71.24691772460938 47.50001907348633 L 25.98416519165039 47.50001907348633 C 22.53882789611816 47.50001907348633 19.19713973999023 46.87699508666992 16.05190277099609 45.64825439453125 C 13.01608943939209 44.4622688293457 10.29015159606934 42.7648811340332 7.94983959197998 40.60327911376953 C 5.612351894378662 38.44428253173828 3.777601957321167 35.93115615844727 2.496564626693726 33.13371658325195 C 1.17173957824707 30.24065589904785 0.5000020265579224 27.16763114929199 0.5000020265579224 24.0000057220459 C 0.5000020265579224 20.8323802947998 1.17173957824707 17.75935554504395 2.496564626693726 14.86629295349121 C 3.777601957321167 12.06885528564453 5.612351894378662 9.555730819702148 7.94983959197998 7.396743297576904 C 10.29015159606934 5.235130786895752 13.01607704162598 3.537755727767944 16.05190277099609 2.351768255233765 C 19.19713973999023 1.123030662536621 22.53882789611816 0.5000057220458984 25.98416519165039 0.5000057220458984 L 71.24691772460938 0.5000057220458984 C 74.69225311279297 0.5000057220458984 78.03395080566406 1.123030662536621 81.17919158935547 2.351768255233765 C 84.21500396728516 3.537755727767944 86.94092559814453 5.235130786895752 89.28124237060547 7.396743297576904 C 91.61872863769531 9.555730819702148 93.45347595214844 12.06885528564453 94.73451232910156 14.86629295349121 C 96.05934143066406 17.75935554504395 96.7310791015625 20.8323802947998 96.7310791015625 24.0000057220459 C 96.7310791015625 27.16763114929199 96.05934143066406 30.24065589904785 94.73451232910156 33.13371658325195 C 93.45347595214844 35.93115615844727 91.61872863769531 38.44428253173828 89.28124237060547 40.60327911376953 C 86.94092559814453 42.7648811340332 84.21500396728516 44.4622688293457 81.17919158935547 45.64825439453125 C 78.03395080566406 46.87699508666992 74.69225311279297 47.50001907348633 71.24691772460938 47.50001907348633 Z" stroke="none"/>
      <path d="M 25.98416900634766 1.000003814697266 C 22.60134124755859 1.000003814697266 19.32084655761719 1.611499786376953 16.23383331298828 2.817485809326172 C 13.25637817382813 3.980686187744141 10.58338165283203 5.644939422607422 8.289085388183594 7.764034271240234 C 6.000442504882813 9.877910614013672 4.204513549804688 12.33749771118164 2.951164245605469 15.07447052001953 C 1.656455993652344 17.90175247192383 0.9999923706054688 20.90472602844238 0.9999923706054688 24.0000057220459 C 0.9999923706054688 27.09528541564941 1.656455993652344 30.09825897216797 2.951164245605469 32.925537109375 C 4.204513549804688 35.66251373291016 6.000442504882813 38.12210083007813 8.289085388183594 40.23597717285156 C 10.58338165283203 42.35507202148438 13.25637817382813 44.01932525634766 16.23383331298828 45.18252563476563 C 19.32084655761719 46.38851165771484 22.60134124755859 47.00000762939453 25.98416900634766 47.00000762939453 L 71.24691009521484 47.00000762939453 C 74.62973785400391 47.00000762939453 77.91021728515625 46.38851165771484 80.99723052978516 45.18252563476563 C 83.97470092773438 44.01932525634766 86.64769744873047 42.35507202148438 88.94197845458984 40.23597717285156 C 91.23062133789063 38.12210083007813 93.02655029296875 35.66251373291016 94.27989959716797 32.925537109375 C 95.57460784912109 30.09825897216797 96.23107147216797 27.09528541564941 96.23107147216797 24.0000057220459 C 96.23107147216797 20.90472602844238 95.57460784912109 17.90175247192383 94.27989959716797 15.07447052001953 C 93.02655029296875 12.33749771118164 91.23062133789063 9.877910614013672 88.94197845458984 7.764034271240234 C 86.64769744873047 5.644939422607422 83.97470092773438 3.980686187744141 80.99723052978516 2.817485809326172 C 77.91021728515625 1.611499786376953 74.62973785400391 1.000003814697266 71.24691009521484 1.000003814697266 L 25.98416900634766 1.000003814697266 M 25.98416900634766 3.814697265625e-06 L 71.24691009521484 3.814697265625e-06 C 85.59756469726563 3.814697265625e-06 97.23107147216797 10.74516677856445 97.23107147216797 24.0000057220459 C 97.23107147216797 37.25484466552734 85.59756469726563 48.00000762939453 71.24691009521484 48.00000762939453 L 25.98416900634766 48.00000762939453 C 11.63349914550781 48.00000762939453 -7.62939453125e-06 37.25484466552734 -7.62939453125e-06 24.0000057220459 C -7.62939453125e-06 10.74516677856445 11.63349914550781 3.814697265625e-06 25.98416900634766 3.814697265625e-06 Z" stroke="none" fill="#707070"/>
    </g>
    <g id="Path_43" data-name="Path 43" transform="translate(874 991)" fill="#fff">
      <path d="M 24.30776977539063 43.5 C 21.08757019042969 43.5 17.9643497467041 42.92943954467773 15.02483940124512 41.80418014526367 C 12.18828010559082 40.71831893920898 9.641449928283691 39.16442108154297 7.455099582672119 37.18563842773438 C 5.272329807281494 35.21009826660156 3.559159755706787 32.91083145141602 2.363199710845947 30.35169982910156 C 1.126869797706604 27.70619964599609 0.4999997615814209 24.89628028869629 0.4999997615814209 22 C 0.4999997615814209 19.10371971130371 1.126869797706604 16.29380035400391 2.363199710845947 13.64830017089844 C 3.559159755706787 11.08917045593262 5.272329807281494 8.789910316467285 7.455099582672119 6.814370155334473 C 9.641449928283691 4.83558988571167 12.18828010559082 3.281689882278442 15.02483940124512 2.195820093154907 C 17.9643497467041 1.070559978485107 21.08757972717285 0.5 24.30776977539063 0.5 C 27.5279598236084 0.5 30.65118980407715 1.070559978485107 33.5906982421875 2.195820093154907 C 36.42726135253906 3.281689882278442 38.97409057617188 4.83558988571167 41.16043853759766 6.814370155334473 C 43.34320831298828 8.789910316467285 45.05638122558594 11.08917045593262 46.25233840942383 13.64830017089844 C 47.48867034912109 16.29380035400391 48.11553955078125 19.10371971130371 48.11553955078125 22 C 48.11553955078125 24.89628028869629 47.48867034912109 27.70619964599609 46.25233840942383 30.35169982910156 C 45.05638122558594 32.91083145141602 43.34320831298828 35.21009826660156 41.16043853759766 37.18563842773438 C 38.97409057617188 39.16442108154297 36.42726135253906 40.71831893920898 33.5906982421875 41.80418014526367 C 30.65118980407715 42.92943954467773 27.52796936035156 43.5 24.30776977539063 43.5 Z" stroke="none"/>
      <path d="M 24.30776977539063 1 C 21.14891052246094 1 18.08581924438477 1.559440612792969 15.20359802246094 2.66278076171875 C 12.42501831054688 3.7264404296875 9.930931091308594 5.247959136962891 7.790618896484375 7.185070037841797 C 5.657451629638672 9.115718841552734 3.983810424804688 11.36148071289063 2.816181182861328 13.85998916625977 C 1.611049652099609 16.438720703125 1 19.17741966247559 1 22 C 1 24.82258033752441 1.611049652099609 27.561279296875 2.816181182861328 30.14001083374023 C 3.983810424804688 32.63851928710938 5.657451629638672 34.88428115844727 7.790618896484375 36.8149299621582 C 9.930931091308594 38.75204086303711 12.42501831054688 40.2735595703125 15.20359802246094 41.33721923828125 C 18.08581924438477 42.44055938720703 21.14891052246094 43 24.30776977539063 43 C 27.46662902832031 43 30.52972030639648 42.44055938720703 33.41194152832031 41.33721923828125 C 36.19052124023438 40.2735595703125 38.68460845947266 38.75204086303711 40.82492065429688 36.8149299621582 C 42.95809173583984 34.88428115844727 44.63172912597656 32.63851928710938 45.79935836791992 30.14001083374023 C 47.00448989868164 27.561279296875 47.61553955078125 24.82258033752441 47.61553955078125 22 C 47.61553955078125 19.17741966247559 47.00448989868164 16.438720703125 45.79935836791992 13.85998916625977 C 44.63172912597656 11.36148071289063 42.95809173583984 9.115718841552734 40.82492065429688 7.185070037841797 C 38.68460845947266 5.247959136962891 36.19052124023438 3.7264404296875 33.41194152832031 2.66278076171875 C 30.52972030639648 1.559440612792969 27.46662902832031 1 24.30776977539063 1 M 24.30776977539063 0 C 37.73258209228516 0 48.61553955078125 9.8497314453125 48.61553955078125 22 C 48.61553955078125 34.1502685546875 37.73258209228516 44 24.30776977539063 44 C 10.88296127319336 44 0 34.1502685546875 0 22 C 0 9.8497314453125 10.88296127319336 0 24.30776977539063 0 Z" stroke="none" fill="#302f2f"/>
    </g>
  </g>
</svg>
