<svg xmlns="http://www.w3.org/2000/svg" width="42.351" height="42.351" viewBox="0 0 42.351 42.351">
  <path id="twitter" d="M21.176,0A21.176,21.176,0,1,0,42.351,21.176,21.178,21.178,0,0,0,21.176,0Zm9.669,16.511q.014.313.014.628A13.735,13.735,0,0,1,17.029,30.968h0a13.758,13.758,0,0,1-7.45-2.183,9.886,9.886,0,0,0,1.159.067,9.752,9.752,0,0,0,6.037-2.081A4.866,4.866,0,0,1,12.234,23.4a4.844,4.844,0,0,0,2.2-.083,4.862,4.862,0,0,1-3.9-4.764c0-.022,0-.042,0-.062a4.827,4.827,0,0,0,2.2.608,4.865,4.865,0,0,1-1.5-6.489,13.8,13.8,0,0,0,10.018,5.078,4.863,4.863,0,0,1,8.282-4.432,9.749,9.749,0,0,0,3.086-1.18,4.879,4.879,0,0,1-2.137,2.688,9.694,9.694,0,0,0,2.791-.765,9.877,9.877,0,0,1-2.424,2.517Zm0,0" fill="#fff"/>
</svg>
